<?xml version="1.0" encoding="utf-8"?>
<!-- Generator: Adobe Illustrator 19.0.0, SVG Export Plug-In . SVG Version: 6.00 Build 0)  -->
<svg version="1.1" xmlns="http://www.w3.org/2000/svg" xmlns:xlink="http://www.w3.org/1999/xlink" x="0px" y="0px"
	 viewBox="0 0 50 50" style="enable-background:new 0 0 50 50;" xml:space="preserve">
<style type="text/css">
	.st0{fill:#fff;}
	.st1{fill:#fff;}
</style>
<g id="Layer_2">
</g>
<g id="Layer_1">
	<g id="XMLID_8_">
		<g id="XMLID_1_">
			<path id="XMLID_5_" class="st0" d="M25,49.6c-6.6,0-12.8-2.6-17.4-7.2C2.9,37.8,0.4,31.6,0.4,25S2.9,12.2,7.6,7.6
				C12.2,2.9,18.4,0.4,25,0.4s12.8,2.6,17.4,7.2s7.2,10.8,7.2,17.4s-2.6,12.8-7.2,17.4S31.6,49.6,25,49.6z M25,8C15.6,8,8,15.6,8,25
				c0,9.4,7.6,17,17,17s17-7.6,17-17C42,15.6,34.4,8,25,8z"/>
		</g>
		<g id="XMLID_3_">
			<path id="XMLID_4_" class="st1" d="M25,39.3c-2.1,0-3.8-1.7-3.8-3.8c0-2.1,1.7-3.8,3.8-3.8c3.7,0,6.7-3,6.7-6.7s-3-6.7-6.7-6.7
				c-2.1,0-3.8-1.7-3.8-3.8s1.7-3.8,3.8-3.8c7.9,0,14.3,6.4,14.3,14.3S32.9,39.3,25,39.3z"/>
		</g>
	</g>
</g>
</svg>
